<mxfile host="app.diagrams.net" modified="2023-05-28T19:26:52.491Z" agent="Mozilla/5.0 (X11; Linux x86_64; rv:109.0) Gecko/20100101 Firefox/113.0" etag="59nA4z02grObXVixBcgK" version="21.2.3">
  <diagram name="PÃ¡gina-1" id="vJspsdCvZuiFXxu0Eayy">
    <mxGraphModel dx="7550" dy="4138" grid="1" gridSize="10" guides="1" tooltips="1" connect="1" arrows="1" fold="1" page="1" pageScale="1" pageWidth="827" pageHeight="1169" math="0" shadow="0">
      <root>
        <mxCell id="0" />
        <mxCell id="1" parent="0" />
        <mxCell id="iN3SImq5zuZHD2F-pTaS-1" value="" style="shape=folder;fontStyle=1;spacingTop=10;tabWidth=160;tabHeight=30;tabPosition=left;html=1;whiteSpace=wrap;" vertex="1" parent="1">
          <mxGeometry x="840" y="-1160" width="1790" height="1189" as="geometry" />
        </mxCell>
        <mxCell id="iN3SImq5zuZHD2F-pTaS-2" value="/home/cluster [NFS]" style="text;html=1;align=center;verticalAlign=middle;resizable=0;points=[];autosize=1;strokeColor=none;fillColor=none;fontFamily=Georgia;container=1;" vertex="1" parent="1">
          <mxGeometry x="840" y="-1160" width="160" height="30" as="geometry" />
        </mxCell>
        <mxCell id="iN3SImq5zuZHD2F-pTaS-218" value="" style="group" vertex="1" connectable="0" parent="1">
          <mxGeometry x="1770" y="-451" width="180" height="135" as="geometry" />
        </mxCell>
        <mxCell id="iN3SImq5zuZHD2F-pTaS-84" value="" style="shape=folder;fontStyle=1;spacingTop=10;tabWidth=80;tabHeight=30;tabPosition=left;html=1;whiteSpace=wrap;" vertex="1" parent="iN3SImq5zuZHD2F-pTaS-218">
          <mxGeometry width="160" height="130" as="geometry" />
        </mxCell>
        <mxCell id="iN3SImq5zuZHD2F-pTaS-85" value="/python" style="text;html=1;align=center;verticalAlign=middle;resizable=0;points=[];autosize=1;strokeColor=none;fillColor=none;fontFamily=Georgia;container=1;" vertex="1" parent="iN3SImq5zuZHD2F-pTaS-218">
          <mxGeometry width="80" height="30" as="geometry" />
        </mxCell>
        <mxCell id="iN3SImq5zuZHD2F-pTaS-221" value="" style="group" vertex="1" connectable="0" parent="1">
          <mxGeometry x="2670" y="-1130" width="350" height="470" as="geometry" />
        </mxCell>
        <mxCell id="iN3SImq5zuZHD2F-pTaS-94" value="" style="shape=folder;fontStyle=1;spacingTop=10;tabWidth=220;tabHeight=28;tabPosition=left;html=1;whiteSpace=wrap;" vertex="1" parent="iN3SImq5zuZHD2F-pTaS-221">
          <mxGeometry y="2.2" width="340" height="357.8" as="geometry" />
        </mxCell>
        <mxCell id="iN3SImq5zuZHD2F-pTaS-95" value="&lt;div&gt;/etc/elasticsearch [Atenas]&lt;/div&gt;" style="text;html=1;align=center;verticalAlign=middle;resizable=0;points=[];autosize=1;strokeColor=none;fillColor=none;fontFamily=Georgia;container=1;" vertex="1" parent="iN3SImq5zuZHD2F-pTaS-221">
          <mxGeometry width="220" height="30" as="geometry" />
        </mxCell>
        <mxCell id="iN3SImq5zuZHD2F-pTaS-223" value="" style="shape=folder;fontStyle=1;spacingTop=10;tabWidth=70;tabHeight=30;tabPosition=left;html=1;whiteSpace=wrap;" vertex="1" parent="1">
          <mxGeometry x="860" y="-1115" width="850" height="470" as="geometry" />
        </mxCell>
        <mxCell id="iN3SImq5zuZHD2F-pTaS-224" value="/spark" style="text;html=1;align=center;verticalAlign=middle;resizable=0;points=[];autosize=1;strokeColor=none;fillColor=none;fontFamily=Georgia;container=1;" vertex="1" parent="1">
          <mxGeometry x="860" y="-1115" width="70" height="30" as="geometry" />
        </mxCell>
        <mxCell id="iN3SImq5zuZHD2F-pTaS-225" value="" style="group" vertex="1" connectable="0" parent="1">
          <mxGeometry x="870" y="-1075" width="190" height="100" as="geometry" />
        </mxCell>
        <mxCell id="iN3SImq5zuZHD2F-pTaS-226" value="" style="shape=folder;fontStyle=1;spacingTop=10;tabWidth=130;tabHeight=30;tabPosition=left;html=1;whiteSpace=wrap;" vertex="1" parent="iN3SImq5zuZHD2F-pTaS-225">
          <mxGeometry width="190" height="100" as="geometry" />
        </mxCell>
        <mxCell id="iN3SImq5zuZHD2F-pTaS-227" value="/spark-version" style="text;html=1;align=center;verticalAlign=middle;resizable=0;points=[];autosize=1;strokeColor=none;fillColor=none;fontFamily=Georgia;container=1;" vertex="1" parent="iN3SImq5zuZHD2F-pTaS-225">
          <mxGeometry width="130" height="30" as="geometry" />
        </mxCell>
        <mxCell id="iN3SImq5zuZHD2F-pTaS-228" style="edgeStyle=orthogonalEdgeStyle;rounded=0;orthogonalLoop=1;jettySize=auto;html=1;exitX=0;exitY=0;exitDx=130;exitDy=30;exitPerimeter=0;" edge="1" parent="1" source="iN3SImq5zuZHD2F-pTaS-256" target="iN3SImq5zuZHD2F-pTaS-226">
          <mxGeometry relative="1" as="geometry">
            <Array as="points">
              <mxPoint x="965" y="-905" />
            </Array>
          </mxGeometry>
        </mxCell>
        <mxCell id="iN3SImq5zuZHD2F-pTaS-229" value="&lt;div&gt;Symbolic Link&lt;/div&gt;" style="edgeLabel;html=1;align=center;verticalAlign=middle;resizable=0;points=[];" vertex="1" connectable="0" parent="iN3SImq5zuZHD2F-pTaS-228">
          <mxGeometry x="-0.3746" y="1" relative="1" as="geometry">
            <mxPoint x="-3" y="-46" as="offset" />
          </mxGeometry>
        </mxCell>
        <mxCell id="iN3SImq5zuZHD2F-pTaS-230" value="" style="group" vertex="1" connectable="0" parent="1">
          <mxGeometry x="1090" y="-1065" width="190" height="410" as="geometry" />
        </mxCell>
        <mxCell id="iN3SImq5zuZHD2F-pTaS-231" value="" style="shape=folder;fontStyle=1;spacingTop=10;tabWidth=100;tabHeight=30;tabPosition=left;html=1;whiteSpace=wrap;" vertex="1" parent="iN3SImq5zuZHD2F-pTaS-230">
          <mxGeometry width="190" height="410" as="geometry" />
        </mxCell>
        <mxCell id="iN3SImq5zuZHD2F-pTaS-232" value="/spark-zeus" style="text;html=1;align=center;verticalAlign=middle;resizable=0;points=[];autosize=1;strokeColor=none;fillColor=none;fontFamily=Georgia;container=1;" vertex="1" parent="iN3SImq5zuZHD2F-pTaS-230">
          <mxGeometry width="100" height="30" as="geometry" />
        </mxCell>
        <mxCell id="iN3SImq5zuZHD2F-pTaS-233" value="" style="group" vertex="1" connectable="0" parent="iN3SImq5zuZHD2F-pTaS-230">
          <mxGeometry x="10" y="39.99571428571429" width="170" height="240" as="geometry" />
        </mxCell>
        <mxCell id="iN3SImq5zuZHD2F-pTaS-234" value="" style="shape=folder;fontStyle=1;spacingTop=10;tabWidth=60;tabHeight=30;tabPosition=left;html=1;whiteSpace=wrap;" vertex="1" parent="iN3SImq5zuZHD2F-pTaS-233">
          <mxGeometry width="170" height="240" as="geometry" />
        </mxCell>
        <mxCell id="iN3SImq5zuZHD2F-pTaS-235" value="/conf" style="text;html=1;align=center;verticalAlign=middle;resizable=0;points=[];autosize=1;strokeColor=none;fillColor=none;fontFamily=Georgia;container=1;" vertex="1" parent="iN3SImq5zuZHD2F-pTaS-233">
          <mxGeometry width="60" height="30" as="geometry" />
        </mxCell>
        <mxCell id="iN3SImq5zuZHD2F-pTaS-236" value="spark-defaults.conf" style="html=1;whiteSpace=wrap;fontFamily=Georgia;" vertex="1" parent="iN3SImq5zuZHD2F-pTaS-233">
          <mxGeometry x="10" y="40.01" width="150" height="39.99" as="geometry" />
        </mxCell>
        <mxCell id="iN3SImq5zuZHD2F-pTaS-237" value="spark-env.sh" style="html=1;whiteSpace=wrap;fontFamily=Georgia;" vertex="1" parent="iN3SImq5zuZHD2F-pTaS-233">
          <mxGeometry x="10" y="90" width="150" height="40" as="geometry" />
        </mxCell>
        <mxCell id="iN3SImq5zuZHD2F-pTaS-238" value="fairscheduler.xml" style="html=1;whiteSpace=wrap;fontFamily=Georgia;" vertex="1" parent="iN3SImq5zuZHD2F-pTaS-233">
          <mxGeometry x="10" y="140" width="150" height="40" as="geometry" />
        </mxCell>
        <mxCell id="iN3SImq5zuZHD2F-pTaS-239" value="workers" style="html=1;whiteSpace=wrap;fontFamily=Georgia;" vertex="1" parent="iN3SImq5zuZHD2F-pTaS-233">
          <mxGeometry x="10" y="190" width="150" height="40" as="geometry" />
        </mxCell>
        <mxCell id="iN3SImq5zuZHD2F-pTaS-240" value="" style="group" vertex="1" connectable="0" parent="iN3SImq5zuZHD2F-pTaS-230">
          <mxGeometry x="10" y="289.9971428571429" width="170" height="108.57142857142858" as="geometry" />
        </mxCell>
        <mxCell id="iN3SImq5zuZHD2F-pTaS-241" value="" style="shape=folder;fontStyle=1;spacingTop=10;tabWidth=60;tabHeight=30;tabPosition=left;html=1;whiteSpace=wrap;" vertex="1" parent="iN3SImq5zuZHD2F-pTaS-240">
          <mxGeometry width="170" height="108.57142857142858" as="geometry" />
        </mxCell>
        <mxCell id="iN3SImq5zuZHD2F-pTaS-242" value="/logs" style="text;html=1;align=center;verticalAlign=middle;resizable=0;points=[];autosize=1;strokeColor=none;fillColor=none;fontFamily=Georgia;container=1;" vertex="1" parent="iN3SImq5zuZHD2F-pTaS-240">
          <mxGeometry width="60" height="30" as="geometry" />
        </mxCell>
        <mxCell id="iN3SImq5zuZHD2F-pTaS-243" value="" style="group" vertex="1" connectable="0" parent="1">
          <mxGeometry x="1510" y="-1065" width="190" height="280" as="geometry" />
        </mxCell>
        <mxCell id="iN3SImq5zuZHD2F-pTaS-244" value="" style="shape=folder;fontStyle=1;spacingTop=10;tabWidth=100;tabHeight=30;tabPosition=left;html=1;whiteSpace=wrap;" vertex="1" parent="iN3SImq5zuZHD2F-pTaS-243">
          <mxGeometry width="190" height="279.99999999999994" as="geometry" />
        </mxCell>
        <mxCell id="iN3SImq5zuZHD2F-pTaS-245" value="/spark-hera" style="text;html=1;align=center;verticalAlign=middle;resizable=0;points=[];autosize=1;strokeColor=none;fillColor=none;fontFamily=Georgia;container=1;" vertex="1" parent="iN3SImq5zuZHD2F-pTaS-243">
          <mxGeometry width="100" height="30" as="geometry" />
        </mxCell>
        <mxCell id="iN3SImq5zuZHD2F-pTaS-246" value="" style="group" vertex="1" connectable="0" parent="iN3SImq5zuZHD2F-pTaS-243">
          <mxGeometry x="10" y="190" width="170" height="80" as="geometry" />
        </mxCell>
        <mxCell id="iN3SImq5zuZHD2F-pTaS-247" value="" style="shape=folder;fontStyle=1;spacingTop=10;tabWidth=60;tabHeight=30;tabPosition=left;html=1;whiteSpace=wrap;" vertex="1" parent="iN3SImq5zuZHD2F-pTaS-246">
          <mxGeometry width="170" height="80" as="geometry" />
        </mxCell>
        <mxCell id="iN3SImq5zuZHD2F-pTaS-248" value="/logs" style="text;html=1;align=center;verticalAlign=middle;resizable=0;points=[];autosize=1;strokeColor=none;fillColor=none;fontFamily=Georgia;container=1;" vertex="1" parent="iN3SImq5zuZHD2F-pTaS-246">
          <mxGeometry width="60" height="30" as="geometry" />
        </mxCell>
        <mxCell id="iN3SImq5zuZHD2F-pTaS-249" value="" style="group" vertex="1" connectable="0" parent="iN3SImq5zuZHD2F-pTaS-243">
          <mxGeometry x="10" y="40" width="170" height="140" as="geometry" />
        </mxCell>
        <mxCell id="iN3SImq5zuZHD2F-pTaS-250" value="" style="shape=folder;fontStyle=1;spacingTop=10;tabWidth=60;tabHeight=30;tabPosition=left;html=1;whiteSpace=wrap;" vertex="1" parent="iN3SImq5zuZHD2F-pTaS-249">
          <mxGeometry width="170" height="140" as="geometry" />
        </mxCell>
        <mxCell id="iN3SImq5zuZHD2F-pTaS-251" value="/conf" style="text;html=1;align=center;verticalAlign=middle;resizable=0;points=[];autosize=1;strokeColor=none;fillColor=none;fontFamily=Georgia;container=1;" vertex="1" parent="iN3SImq5zuZHD2F-pTaS-249">
          <mxGeometry width="60" height="30" as="geometry" />
        </mxCell>
        <mxCell id="iN3SImq5zuZHD2F-pTaS-252" value="spark-defaults.conf" style="html=1;whiteSpace=wrap;fontFamily=Georgia;" vertex="1" parent="iN3SImq5zuZHD2F-pTaS-249">
          <mxGeometry x="10" y="40" width="150" height="40" as="geometry" />
        </mxCell>
        <mxCell id="iN3SImq5zuZHD2F-pTaS-253" value="spark-env.sh" style="html=1;whiteSpace=wrap;fontFamily=Georgia;" vertex="1" parent="iN3SImq5zuZHD2F-pTaS-249">
          <mxGeometry x="10" y="90" width="150" height="40" as="geometry" />
        </mxCell>
        <mxCell id="iN3SImq5zuZHD2F-pTaS-254" value="" style="group" vertex="1" connectable="0" parent="1">
          <mxGeometry x="870" y="-935" width="190" height="280" as="geometry" />
        </mxCell>
        <mxCell id="iN3SImq5zuZHD2F-pTaS-255" value="" style="group" vertex="1" connectable="0" parent="iN3SImq5zuZHD2F-pTaS-254">
          <mxGeometry width="190" height="280" as="geometry" />
        </mxCell>
        <mxCell id="iN3SImq5zuZHD2F-pTaS-256" value="" style="shape=folder;fontStyle=1;spacingTop=10;tabWidth=70;tabHeight=30;tabPosition=left;html=1;whiteSpace=wrap;" vertex="1" parent="iN3SImq5zuZHD2F-pTaS-255">
          <mxGeometry width="190" height="279.99999999999994" as="geometry" />
        </mxCell>
        <mxCell id="iN3SImq5zuZHD2F-pTaS-257" value="/spark" style="text;html=1;align=center;verticalAlign=middle;resizable=0;points=[];autosize=1;strokeColor=none;fillColor=none;fontFamily=Georgia;container=1;" vertex="1" parent="iN3SImq5zuZHD2F-pTaS-255">
          <mxGeometry width="70" height="30" as="geometry" />
        </mxCell>
        <mxCell id="iN3SImq5zuZHD2F-pTaS-258" value="" style="group" vertex="1" connectable="0" parent="iN3SImq5zuZHD2F-pTaS-254">
          <mxGeometry x="10" y="190" width="170" height="80" as="geometry" />
        </mxCell>
        <mxCell id="iN3SImq5zuZHD2F-pTaS-259" value="" style="shape=folder;fontStyle=1;spacingTop=10;tabWidth=60;tabHeight=30;tabPosition=left;html=1;whiteSpace=wrap;" vertex="1" parent="iN3SImq5zuZHD2F-pTaS-258">
          <mxGeometry width="170" height="80" as="geometry" />
        </mxCell>
        <mxCell id="iN3SImq5zuZHD2F-pTaS-260" value="/logs" style="text;html=1;align=center;verticalAlign=middle;resizable=0;points=[];autosize=1;strokeColor=none;fillColor=none;fontFamily=Georgia;container=1;" vertex="1" parent="iN3SImq5zuZHD2F-pTaS-258">
          <mxGeometry width="60" height="30" as="geometry" />
        </mxCell>
        <mxCell id="iN3SImq5zuZHD2F-pTaS-261" value="" style="group" vertex="1" connectable="0" parent="iN3SImq5zuZHD2F-pTaS-254">
          <mxGeometry x="10" y="40" width="170" height="140" as="geometry" />
        </mxCell>
        <mxCell id="iN3SImq5zuZHD2F-pTaS-262" value="" style="shape=folder;fontStyle=1;spacingTop=10;tabWidth=60;tabHeight=30;tabPosition=left;html=1;whiteSpace=wrap;" vertex="1" parent="iN3SImq5zuZHD2F-pTaS-261">
          <mxGeometry width="170" height="140" as="geometry" />
        </mxCell>
        <mxCell id="iN3SImq5zuZHD2F-pTaS-263" value="/conf" style="text;html=1;align=center;verticalAlign=middle;resizable=0;points=[];autosize=1;strokeColor=none;fillColor=none;fontFamily=Georgia;container=1;" vertex="1" parent="iN3SImq5zuZHD2F-pTaS-261">
          <mxGeometry width="60" height="30" as="geometry" />
        </mxCell>
        <mxCell id="iN3SImq5zuZHD2F-pTaS-264" value="spark-defaults.conf" style="html=1;whiteSpace=wrap;fontFamily=Georgia;" vertex="1" parent="iN3SImq5zuZHD2F-pTaS-261">
          <mxGeometry x="10" y="40" width="150" height="40" as="geometry" />
        </mxCell>
        <mxCell id="iN3SImq5zuZHD2F-pTaS-265" value="spark-env.sh" style="html=1;whiteSpace=wrap;fontFamily=Georgia;" vertex="1" parent="iN3SImq5zuZHD2F-pTaS-261">
          <mxGeometry x="10" y="90" width="150" height="40" as="geometry" />
        </mxCell>
        <mxCell id="iN3SImq5zuZHD2F-pTaS-266" value="" style="group" vertex="1" connectable="0" parent="1">
          <mxGeometry x="1301" y="-1065" width="190" height="280" as="geometry" />
        </mxCell>
        <mxCell id="iN3SImq5zuZHD2F-pTaS-267" value="" style="shape=folder;fontStyle=1;spacingTop=10;tabWidth=119;tabHeight=30;tabPosition=left;html=1;whiteSpace=wrap;" vertex="1" parent="iN3SImq5zuZHD2F-pTaS-266">
          <mxGeometry width="190" height="279.99999999999994" as="geometry" />
        </mxCell>
        <mxCell id="iN3SImq5zuZHD2F-pTaS-268" value="/spark-atenas" style="text;html=1;align=center;verticalAlign=middle;resizable=0;points=[];autosize=1;strokeColor=none;fillColor=none;fontFamily=Georgia;container=1;" vertex="1" parent="iN3SImq5zuZHD2F-pTaS-266">
          <mxGeometry x="-1" width="120" height="30" as="geometry" />
        </mxCell>
        <mxCell id="iN3SImq5zuZHD2F-pTaS-269" value="" style="group" vertex="1" connectable="0" parent="iN3SImq5zuZHD2F-pTaS-266">
          <mxGeometry x="10" y="190" width="170" height="80" as="geometry" />
        </mxCell>
        <mxCell id="iN3SImq5zuZHD2F-pTaS-270" value="" style="shape=folder;fontStyle=1;spacingTop=10;tabWidth=60;tabHeight=30;tabPosition=left;html=1;whiteSpace=wrap;" vertex="1" parent="iN3SImq5zuZHD2F-pTaS-269">
          <mxGeometry width="170" height="80" as="geometry" />
        </mxCell>
        <mxCell id="iN3SImq5zuZHD2F-pTaS-271" value="/logs" style="text;html=1;align=center;verticalAlign=middle;resizable=0;points=[];autosize=1;strokeColor=none;fillColor=none;fontFamily=Georgia;container=1;" vertex="1" parent="iN3SImq5zuZHD2F-pTaS-269">
          <mxGeometry width="60" height="30" as="geometry" />
        </mxCell>
        <mxCell id="iN3SImq5zuZHD2F-pTaS-272" value="" style="group" vertex="1" connectable="0" parent="iN3SImq5zuZHD2F-pTaS-266">
          <mxGeometry x="10" y="40" width="170" height="140" as="geometry" />
        </mxCell>
        <mxCell id="iN3SImq5zuZHD2F-pTaS-273" value="" style="shape=folder;fontStyle=1;spacingTop=10;tabWidth=60;tabHeight=30;tabPosition=left;html=1;whiteSpace=wrap;" vertex="1" parent="iN3SImq5zuZHD2F-pTaS-272">
          <mxGeometry width="170" height="140" as="geometry" />
        </mxCell>
        <mxCell id="iN3SImq5zuZHD2F-pTaS-274" value="/conf" style="text;html=1;align=center;verticalAlign=middle;resizable=0;points=[];autosize=1;strokeColor=none;fillColor=none;fontFamily=Georgia;container=1;" vertex="1" parent="iN3SImq5zuZHD2F-pTaS-272">
          <mxGeometry width="60" height="30" as="geometry" />
        </mxCell>
        <mxCell id="iN3SImq5zuZHD2F-pTaS-275" value="spark-defaults.conf" style="html=1;whiteSpace=wrap;fontFamily=Georgia;" vertex="1" parent="iN3SImq5zuZHD2F-pTaS-272">
          <mxGeometry x="10" y="40" width="150" height="40" as="geometry" />
        </mxCell>
        <mxCell id="iN3SImq5zuZHD2F-pTaS-276" value="spark-env.sh" style="html=1;whiteSpace=wrap;fontFamily=Georgia;" vertex="1" parent="iN3SImq5zuZHD2F-pTaS-272">
          <mxGeometry x="10" y="90" width="150" height="40" as="geometry" />
        </mxCell>
        <mxCell id="iN3SImq5zuZHD2F-pTaS-382" value="" style="shape=folder;fontStyle=1;spacingTop=10;tabWidth=80;tabHeight=29;tabPosition=left;html=1;whiteSpace=wrap;" vertex="1" parent="1">
          <mxGeometry x="865" y="-611" width="840" height="619" as="geometry" />
        </mxCell>
        <mxCell id="iN3SImq5zuZHD2F-pTaS-383" value="&lt;div&gt;/hadoop&lt;/div&gt;" style="text;html=1;align=center;verticalAlign=middle;resizable=0;points=[];autosize=1;strokeColor=none;fillColor=none;fontFamily=Georgia;container=1;" vertex="1" parent="1">
          <mxGeometry x="865" y="-611" width="80" height="30" as="geometry" />
        </mxCell>
        <mxCell id="iN3SImq5zuZHD2F-pTaS-384" value="" style="group" vertex="1" connectable="0" parent="1">
          <mxGeometry x="875" y="-571" width="190" height="100" as="geometry" />
        </mxCell>
        <mxCell id="iN3SImq5zuZHD2F-pTaS-385" value="" style="shape=folder;fontStyle=1;spacingTop=10;tabWidth=130;tabHeight=30;tabPosition=left;html=1;whiteSpace=wrap;" vertex="1" parent="iN3SImq5zuZHD2F-pTaS-384">
          <mxGeometry width="190" height="100" as="geometry" />
        </mxCell>
        <mxCell id="iN3SImq5zuZHD2F-pTaS-386" value="/hadoop-version" style="text;html=1;align=center;verticalAlign=middle;resizable=0;points=[];autosize=1;strokeColor=none;fillColor=none;fontFamily=Georgia;container=1;" vertex="1" parent="iN3SImq5zuZHD2F-pTaS-384">
          <mxGeometry width="130" height="30" as="geometry" />
        </mxCell>
        <mxCell id="iN3SImq5zuZHD2F-pTaS-387" style="edgeStyle=orthogonalEdgeStyle;rounded=0;orthogonalLoop=1;jettySize=auto;html=1;exitX=0;exitY=0;exitDx=130;exitDy=30;exitPerimeter=0;" edge="1" parent="1" source="iN3SImq5zuZHD2F-pTaS-389" target="iN3SImq5zuZHD2F-pTaS-385">
          <mxGeometry relative="1" as="geometry">
            <Array as="points">
              <mxPoint x="970" y="-401" />
            </Array>
          </mxGeometry>
        </mxCell>
        <mxCell id="iN3SImq5zuZHD2F-pTaS-388" value="&lt;div&gt;Symbolic Link&lt;/div&gt;" style="edgeLabel;html=1;align=center;verticalAlign=middle;resizable=0;points=[];" vertex="1" connectable="0" parent="iN3SImq5zuZHD2F-pTaS-387">
          <mxGeometry x="-0.3746" y="1" relative="1" as="geometry">
            <mxPoint x="-3" y="-46" as="offset" />
          </mxGeometry>
        </mxCell>
        <mxCell id="iN3SImq5zuZHD2F-pTaS-389" value="" style="shape=folder;fontStyle=1;spacingTop=10;tabWidth=70;tabHeight=30;tabPosition=left;html=1;whiteSpace=wrap;" vertex="1" parent="1">
          <mxGeometry x="875" y="-431" width="190" height="190" as="geometry" />
        </mxCell>
        <mxCell id="iN3SImq5zuZHD2F-pTaS-390" value="/hadoop" style="text;html=1;align=center;verticalAlign=middle;resizable=0;points=[];autosize=1;strokeColor=none;fillColor=none;fontFamily=Georgia;container=1;" vertex="1" parent="1">
          <mxGeometry x="870" y="-431" width="80" height="30" as="geometry" />
        </mxCell>
        <mxCell id="iN3SImq5zuZHD2F-pTaS-391" value="" style="group" vertex="1" connectable="0" parent="1">
          <mxGeometry x="885" y="-391" width="170" height="250" as="geometry" />
        </mxCell>
        <mxCell id="iN3SImq5zuZHD2F-pTaS-392" value="" style="shape=folder;fontStyle=1;spacingTop=10;tabWidth=100;tabHeight=29;tabPosition=left;html=1;whiteSpace=wrap;" vertex="1" parent="iN3SImq5zuZHD2F-pTaS-391">
          <mxGeometry width="170" height="140" as="geometry" />
        </mxCell>
        <mxCell id="iN3SImq5zuZHD2F-pTaS-393" value="/etc/hadoop" style="text;html=1;align=center;verticalAlign=middle;resizable=0;points=[];autosize=1;strokeColor=none;fillColor=none;fontFamily=Georgia;container=1;" vertex="1" parent="iN3SImq5zuZHD2F-pTaS-391">
          <mxGeometry width="100" height="30" as="geometry" />
        </mxCell>
        <mxCell id="iN3SImq5zuZHD2F-pTaS-394" value="core-site.xml" style="html=1;whiteSpace=wrap;fontFamily=Georgia;" vertex="1" parent="iN3SImq5zuZHD2F-pTaS-391">
          <mxGeometry x="10" y="40" width="150" height="40" as="geometry" />
        </mxCell>
        <mxCell id="iN3SImq5zuZHD2F-pTaS-395" value="&lt;div&gt;hdfs-site.xml&lt;/div&gt;" style="html=1;whiteSpace=wrap;fontFamily=Georgia;" vertex="1" parent="iN3SImq5zuZHD2F-pTaS-391">
          <mxGeometry x="10" y="90" width="150" height="40" as="geometry" />
        </mxCell>
        <mxCell id="iN3SImq5zuZHD2F-pTaS-396" value="" style="group" vertex="1" connectable="0" parent="1">
          <mxGeometry x="1085" y="-572" width="190" height="590" as="geometry" />
        </mxCell>
        <mxCell id="iN3SImq5zuZHD2F-pTaS-397" value="" style="group" vertex="1" connectable="0" parent="iN3SImq5zuZHD2F-pTaS-396">
          <mxGeometry width="190" height="590" as="geometry" />
        </mxCell>
        <mxCell id="iN3SImq5zuZHD2F-pTaS-398" value="" style="shape=folder;fontStyle=1;spacingTop=10;tabWidth=110;tabHeight=30;tabPosition=left;html=1;whiteSpace=wrap;" vertex="1" parent="iN3SImq5zuZHD2F-pTaS-397">
          <mxGeometry width="190" height="570" as="geometry" />
        </mxCell>
        <mxCell id="iN3SImq5zuZHD2F-pTaS-399" value="/hadoop-hera" style="text;html=1;align=center;verticalAlign=middle;resizable=0;points=[];autosize=1;strokeColor=none;fillColor=none;fontFamily=Georgia;container=1;" vertex="1" parent="iN3SImq5zuZHD2F-pTaS-397">
          <mxGeometry width="110" height="30" as="geometry" />
        </mxCell>
        <mxCell id="iN3SImq5zuZHD2F-pTaS-400" value="" style="group" vertex="1" connectable="0" parent="iN3SImq5zuZHD2F-pTaS-397">
          <mxGeometry x="10" y="289" width="170" height="80" as="geometry" />
        </mxCell>
        <mxCell id="iN3SImq5zuZHD2F-pTaS-401" value="" style="shape=folder;fontStyle=1;spacingTop=10;tabWidth=60;tabHeight=30;tabPosition=left;html=1;whiteSpace=wrap;" vertex="1" parent="iN3SImq5zuZHD2F-pTaS-400">
          <mxGeometry width="170" height="80" as="geometry" />
        </mxCell>
        <mxCell id="iN3SImq5zuZHD2F-pTaS-402" value="/logs" style="text;html=1;align=center;verticalAlign=middle;resizable=0;points=[];autosize=1;strokeColor=none;fillColor=none;fontFamily=Georgia;container=1;" vertex="1" parent="iN3SImq5zuZHD2F-pTaS-400">
          <mxGeometry width="60" height="30" as="geometry" />
        </mxCell>
        <mxCell id="iN3SImq5zuZHD2F-pTaS-403" value="" style="group" vertex="1" connectable="0" parent="iN3SImq5zuZHD2F-pTaS-397">
          <mxGeometry x="10" y="379" width="180" height="180" as="geometry" />
        </mxCell>
        <mxCell id="iN3SImq5zuZHD2F-pTaS-404" value="" style="shape=folder;fontStyle=1;spacingTop=10;tabWidth=50;tabHeight=30;tabPosition=left;html=1;whiteSpace=wrap;" vertex="1" parent="iN3SImq5zuZHD2F-pTaS-403">
          <mxGeometry width="170" height="180" as="geometry" />
        </mxCell>
        <mxCell id="iN3SImq5zuZHD2F-pTaS-405" value="/dfs" style="text;html=1;align=center;verticalAlign=middle;resizable=0;points=[];autosize=1;strokeColor=none;fillColor=none;fontFamily=Georgia;container=1;" vertex="1" parent="iN3SImq5zuZHD2F-pTaS-403">
          <mxGeometry width="50" height="30" as="geometry" />
        </mxCell>
        <mxCell id="iN3SImq5zuZHD2F-pTaS-406" value="" style="group" vertex="1" connectable="0" parent="iN3SImq5zuZHD2F-pTaS-403">
          <mxGeometry x="10" y="40" width="150" height="60" as="geometry" />
        </mxCell>
        <mxCell id="iN3SImq5zuZHD2F-pTaS-407" value="" style="shape=folder;fontStyle=1;spacingTop=10;tabWidth=90;tabHeight=30;tabPosition=left;html=1;whiteSpace=wrap;" vertex="1" parent="iN3SImq5zuZHD2F-pTaS-406">
          <mxGeometry width="150" height="60" as="geometry" />
        </mxCell>
        <mxCell id="iN3SImq5zuZHD2F-pTaS-408" value="/namenode" style="text;html=1;align=center;verticalAlign=middle;resizable=0;points=[];autosize=1;strokeColor=none;fillColor=none;fontFamily=Georgia;container=1;" vertex="1" parent="iN3SImq5zuZHD2F-pTaS-406">
          <mxGeometry width="90" height="30" as="geometry" />
        </mxCell>
        <mxCell id="iN3SImq5zuZHD2F-pTaS-409" value="" style="group" vertex="1" connectable="0" parent="iN3SImq5zuZHD2F-pTaS-403">
          <mxGeometry x="10" y="110" width="150" height="60" as="geometry" />
        </mxCell>
        <mxCell id="iN3SImq5zuZHD2F-pTaS-410" value="" style="shape=folder;fontStyle=1;spacingTop=10;tabWidth=90;tabHeight=30;tabPosition=left;html=1;whiteSpace=wrap;" vertex="1" parent="iN3SImq5zuZHD2F-pTaS-409">
          <mxGeometry width="150" height="60" as="geometry" />
        </mxCell>
        <mxCell id="iN3SImq5zuZHD2F-pTaS-411" value="/datanode" style="text;html=1;align=center;verticalAlign=middle;resizable=0;points=[];autosize=1;strokeColor=none;fillColor=none;fontFamily=Georgia;container=1;" vertex="1" parent="iN3SImq5zuZHD2F-pTaS-409">
          <mxGeometry width="90" height="30" as="geometry" />
        </mxCell>
        <mxCell id="iN3SImq5zuZHD2F-pTaS-412" value="" style="group" vertex="1" connectable="0" parent="iN3SImq5zuZHD2F-pTaS-396">
          <mxGeometry x="10" y="40" width="170" height="250" as="geometry" />
        </mxCell>
        <mxCell id="iN3SImq5zuZHD2F-pTaS-413" value="" style="shape=folder;fontStyle=1;spacingTop=10;tabWidth=100;tabHeight=29;tabPosition=left;html=1;whiteSpace=wrap;" vertex="1" parent="iN3SImq5zuZHD2F-pTaS-412">
          <mxGeometry width="170" height="240" as="geometry" />
        </mxCell>
        <mxCell id="iN3SImq5zuZHD2F-pTaS-414" value="/etc/hadoop" style="text;html=1;align=center;verticalAlign=middle;resizable=0;points=[];autosize=1;strokeColor=none;fillColor=none;fontFamily=Georgia;container=1;" vertex="1" parent="iN3SImq5zuZHD2F-pTaS-412">
          <mxGeometry width="100" height="30" as="geometry" />
        </mxCell>
        <mxCell id="iN3SImq5zuZHD2F-pTaS-415" value="core-site.xml" style="html=1;whiteSpace=wrap;fontFamily=Georgia;" vertex="1" parent="iN3SImq5zuZHD2F-pTaS-412">
          <mxGeometry x="10" y="40" width="150" height="40" as="geometry" />
        </mxCell>
        <mxCell id="iN3SImq5zuZHD2F-pTaS-416" value="&lt;div&gt;hdfs-site.xml&lt;/div&gt;" style="html=1;whiteSpace=wrap;fontFamily=Georgia;" vertex="1" parent="iN3SImq5zuZHD2F-pTaS-412">
          <mxGeometry x="10" y="90" width="150" height="40" as="geometry" />
        </mxCell>
        <mxCell id="iN3SImq5zuZHD2F-pTaS-417" value="hadoop-env.sh" style="html=1;whiteSpace=wrap;fontFamily=Georgia;" vertex="1" parent="iN3SImq5zuZHD2F-pTaS-412">
          <mxGeometry x="10" y="139" width="150" height="40" as="geometry" />
        </mxCell>
        <mxCell id="iN3SImq5zuZHD2F-pTaS-418" value="workers" style="html=1;whiteSpace=wrap;fontFamily=Georgia;" vertex="1" parent="iN3SImq5zuZHD2F-pTaS-412">
          <mxGeometry x="10" y="189" width="150" height="40" as="geometry" />
        </mxCell>
        <mxCell id="iN3SImq5zuZHD2F-pTaS-419" value="" style="shape=folder;fontStyle=1;spacingTop=10;tabWidth=110;tabHeight=30;tabPosition=left;html=1;whiteSpace=wrap;" vertex="1" parent="1">
          <mxGeometry x="1295" y="-571" width="190" height="330" as="geometry" />
        </mxCell>
        <mxCell id="iN3SImq5zuZHD2F-pTaS-420" value="/hadoop-zeus" style="text;html=1;align=center;verticalAlign=middle;resizable=0;points=[];autosize=1;strokeColor=none;fillColor=none;fontFamily=Georgia;container=1;" vertex="1" parent="1">
          <mxGeometry x="1295" y="-571" width="110" height="30" as="geometry" />
        </mxCell>
        <mxCell id="iN3SImq5zuZHD2F-pTaS-421" value="" style="group" vertex="1" connectable="0" parent="1">
          <mxGeometry x="1305" y="-531" width="170" height="280" as="geometry" />
        </mxCell>
        <mxCell id="iN3SImq5zuZHD2F-pTaS-422" value="" style="shape=folder;fontStyle=1;spacingTop=10;tabWidth=100;tabHeight=29;tabPosition=left;html=1;whiteSpace=wrap;" vertex="1" parent="iN3SImq5zuZHD2F-pTaS-421">
          <mxGeometry width="170" height="190" as="geometry" />
        </mxCell>
        <mxCell id="iN3SImq5zuZHD2F-pTaS-423" value="/etc/hadoop" style="text;html=1;align=center;verticalAlign=middle;resizable=0;points=[];autosize=1;strokeColor=none;fillColor=none;fontFamily=Georgia;container=1;" vertex="1" parent="iN3SImq5zuZHD2F-pTaS-421">
          <mxGeometry width="100" height="30" as="geometry" />
        </mxCell>
        <mxCell id="iN3SImq5zuZHD2F-pTaS-424" value="core-site.xml" style="html=1;whiteSpace=wrap;fontFamily=Georgia;" vertex="1" parent="iN3SImq5zuZHD2F-pTaS-421">
          <mxGeometry x="10" y="40" width="150" height="40" as="geometry" />
        </mxCell>
        <mxCell id="iN3SImq5zuZHD2F-pTaS-425" value="&lt;div&gt;hdfs-site.xml&lt;/div&gt;" style="html=1;whiteSpace=wrap;fontFamily=Georgia;" vertex="1" parent="iN3SImq5zuZHD2F-pTaS-421">
          <mxGeometry x="10" y="90" width="150" height="40" as="geometry" />
        </mxCell>
        <mxCell id="iN3SImq5zuZHD2F-pTaS-426" value="hadoop-env.sh" style="html=1;whiteSpace=wrap;fontFamily=Georgia;" vertex="1" parent="iN3SImq5zuZHD2F-pTaS-421">
          <mxGeometry x="10" y="139" width="150" height="40" as="geometry" />
        </mxCell>
        <mxCell id="iN3SImq5zuZHD2F-pTaS-427" value="" style="group" vertex="1" connectable="0" parent="iN3SImq5zuZHD2F-pTaS-421">
          <mxGeometry y="200" width="170" height="80" as="geometry" />
        </mxCell>
        <mxCell id="iN3SImq5zuZHD2F-pTaS-428" value="" style="shape=folder;fontStyle=1;spacingTop=10;tabWidth=60;tabHeight=30;tabPosition=left;html=1;whiteSpace=wrap;" vertex="1" parent="iN3SImq5zuZHD2F-pTaS-427">
          <mxGeometry width="170" height="80" as="geometry" />
        </mxCell>
        <mxCell id="iN3SImq5zuZHD2F-pTaS-429" value="/logs" style="text;html=1;align=center;verticalAlign=middle;resizable=0;points=[];autosize=1;strokeColor=none;fillColor=none;fontFamily=Georgia;container=1;" vertex="1" parent="iN3SImq5zuZHD2F-pTaS-427">
          <mxGeometry width="60" height="30" as="geometry" />
        </mxCell>
        <mxCell id="iN3SImq5zuZHD2F-pTaS-430" value="" style="shape=folder;fontStyle=1;spacingTop=10;tabWidth=130;tabHeight=30;tabPosition=left;html=1;whiteSpace=wrap;" vertex="1" parent="1">
          <mxGeometry x="1505" y="-572" width="190" height="330" as="geometry" />
        </mxCell>
        <mxCell id="iN3SImq5zuZHD2F-pTaS-431" value="/hadoop-atenas" style="text;html=1;align=center;verticalAlign=middle;resizable=0;points=[];autosize=1;strokeColor=none;fillColor=none;fontFamily=Georgia;container=1;" vertex="1" parent="1">
          <mxGeometry x="1505" y="-572" width="130" height="30" as="geometry" />
        </mxCell>
        <mxCell id="iN3SImq5zuZHD2F-pTaS-432" value="" style="group" vertex="1" connectable="0" parent="1">
          <mxGeometry x="1515" y="-532" width="170" height="280" as="geometry" />
        </mxCell>
        <mxCell id="iN3SImq5zuZHD2F-pTaS-433" value="" style="shape=folder;fontStyle=1;spacingTop=10;tabWidth=100;tabHeight=29;tabPosition=left;html=1;whiteSpace=wrap;" vertex="1" parent="iN3SImq5zuZHD2F-pTaS-432">
          <mxGeometry width="170" height="190" as="geometry" />
        </mxCell>
        <mxCell id="iN3SImq5zuZHD2F-pTaS-434" value="/etc/hadoop" style="text;html=1;align=center;verticalAlign=middle;resizable=0;points=[];autosize=1;strokeColor=none;fillColor=none;fontFamily=Georgia;container=1;" vertex="1" parent="iN3SImq5zuZHD2F-pTaS-432">
          <mxGeometry width="100" height="30" as="geometry" />
        </mxCell>
        <mxCell id="iN3SImq5zuZHD2F-pTaS-435" value="core-site.xml" style="html=1;whiteSpace=wrap;fontFamily=Georgia;" vertex="1" parent="iN3SImq5zuZHD2F-pTaS-432">
          <mxGeometry x="10" y="40" width="150" height="40" as="geometry" />
        </mxCell>
        <mxCell id="iN3SImq5zuZHD2F-pTaS-436" value="&lt;div&gt;hdfs-site.xml&lt;/div&gt;" style="html=1;whiteSpace=wrap;fontFamily=Georgia;" vertex="1" parent="iN3SImq5zuZHD2F-pTaS-432">
          <mxGeometry x="10" y="90" width="150" height="40" as="geometry" />
        </mxCell>
        <mxCell id="iN3SImq5zuZHD2F-pTaS-437" value="hadoop-env.sh" style="html=1;whiteSpace=wrap;fontFamily=Georgia;" vertex="1" parent="iN3SImq5zuZHD2F-pTaS-432">
          <mxGeometry x="10" y="139" width="150" height="40" as="geometry" />
        </mxCell>
        <mxCell id="iN3SImq5zuZHD2F-pTaS-438" value="" style="group" vertex="1" connectable="0" parent="iN3SImq5zuZHD2F-pTaS-432">
          <mxGeometry y="200" width="170" height="80" as="geometry" />
        </mxCell>
        <mxCell id="iN3SImq5zuZHD2F-pTaS-439" value="" style="shape=folder;fontStyle=1;spacingTop=10;tabWidth=60;tabHeight=30;tabPosition=left;html=1;whiteSpace=wrap;" vertex="1" parent="iN3SImq5zuZHD2F-pTaS-438">
          <mxGeometry width="170" height="80" as="geometry" />
        </mxCell>
        <mxCell id="iN3SImq5zuZHD2F-pTaS-440" value="/logs" style="text;html=1;align=center;verticalAlign=middle;resizable=0;points=[];autosize=1;strokeColor=none;fillColor=none;fontFamily=Georgia;container=1;" vertex="1" parent="iN3SImq5zuZHD2F-pTaS-438">
          <mxGeometry width="60" height="30" as="geometry" />
        </mxCell>
        <mxCell id="iN3SImq5zuZHD2F-pTaS-441" value="" style="shape=folder;fontStyle=1;spacingTop=10;tabWidth=70;tabHeight=30;tabPosition=left;html=1;whiteSpace=wrap;" vertex="1" parent="1">
          <mxGeometry x="1770" y="-1115" width="840" height="480" as="geometry" />
        </mxCell>
        <mxCell id="iN3SImq5zuZHD2F-pTaS-442" value="/kafka" style="text;html=1;align=center;verticalAlign=middle;resizable=0;points=[];autosize=1;strokeColor=none;fillColor=none;fontFamily=Georgia;container=1;" vertex="1" parent="1">
          <mxGeometry x="1770" y="-1115" width="70" height="30" as="geometry" />
        </mxCell>
        <mxCell id="iN3SImq5zuZHD2F-pTaS-443" value="" style="group" vertex="1" connectable="0" parent="1">
          <mxGeometry x="1780" y="-1075" width="190" height="100" as="geometry" />
        </mxCell>
        <mxCell id="iN3SImq5zuZHD2F-pTaS-444" value="" style="shape=folder;fontStyle=1;spacingTop=10;tabWidth=130;tabHeight=30;tabPosition=left;html=1;whiteSpace=wrap;" vertex="1" parent="iN3SImq5zuZHD2F-pTaS-443">
          <mxGeometry width="190" height="100" as="geometry" />
        </mxCell>
        <mxCell id="iN3SImq5zuZHD2F-pTaS-445" value="/kafka-version" style="text;html=1;align=center;verticalAlign=middle;resizable=0;points=[];autosize=1;strokeColor=none;fillColor=none;fontFamily=Georgia;container=1;" vertex="1" parent="iN3SImq5zuZHD2F-pTaS-443">
          <mxGeometry width="130" height="30" as="geometry" />
        </mxCell>
        <mxCell id="iN3SImq5zuZHD2F-pTaS-446" style="edgeStyle=orthogonalEdgeStyle;rounded=0;orthogonalLoop=1;jettySize=auto;html=1;exitX=0;exitY=0;exitDx=130;exitDy=30;exitPerimeter=0;" edge="1" parent="1" source="iN3SImq5zuZHD2F-pTaS-460" target="iN3SImq5zuZHD2F-pTaS-444">
          <mxGeometry relative="1" as="geometry">
            <Array as="points">
              <mxPoint x="1875" y="-905" />
            </Array>
          </mxGeometry>
        </mxCell>
        <mxCell id="iN3SImq5zuZHD2F-pTaS-447" value="&lt;div&gt;Symbolic Link&lt;/div&gt;" style="edgeLabel;html=1;align=center;verticalAlign=middle;resizable=0;points=[];" vertex="1" connectable="0" parent="iN3SImq5zuZHD2F-pTaS-446">
          <mxGeometry x="-0.3746" y="1" relative="1" as="geometry">
            <mxPoint x="-3" y="-46" as="offset" />
          </mxGeometry>
        </mxCell>
        <mxCell id="iN3SImq5zuZHD2F-pTaS-448" value="" style="group" vertex="1" connectable="0" parent="1">
          <mxGeometry x="2410" y="-1075" width="190" height="430" as="geometry" />
        </mxCell>
        <mxCell id="iN3SImq5zuZHD2F-pTaS-449" value="" style="shape=folder;fontStyle=1;spacingTop=10;tabWidth=100;tabHeight=30;tabPosition=left;html=1;whiteSpace=wrap;" vertex="1" parent="iN3SImq5zuZHD2F-pTaS-448">
          <mxGeometry width="190" height="260" as="geometry" />
        </mxCell>
        <mxCell id="iN3SImq5zuZHD2F-pTaS-450" value="/kafka-hera" style="text;html=1;align=center;verticalAlign=middle;resizable=0;points=[];autosize=1;strokeColor=none;fillColor=none;fontFamily=Georgia;container=1;" vertex="1" parent="iN3SImq5zuZHD2F-pTaS-448">
          <mxGeometry width="100" height="30" as="geometry" />
        </mxCell>
        <mxCell id="iN3SImq5zuZHD2F-pTaS-451" value="" style="group" vertex="1" connectable="0" parent="iN3SImq5zuZHD2F-pTaS-448">
          <mxGeometry x="10" y="39.99571428571429" width="170" height="258.5728571428572" as="geometry" />
        </mxCell>
        <mxCell id="iN3SImq5zuZHD2F-pTaS-452" value="" style="shape=folder;fontStyle=1;spacingTop=10;tabWidth=80;tabHeight=30;tabPosition=left;html=1;whiteSpace=wrap;" vertex="1" parent="iN3SImq5zuZHD2F-pTaS-451">
          <mxGeometry width="170" height="90" as="geometry" />
        </mxCell>
        <mxCell id="iN3SImq5zuZHD2F-pTaS-453" value="/config" style="text;html=1;align=center;verticalAlign=middle;resizable=0;points=[];autosize=1;strokeColor=none;fillColor=none;fontFamily=Georgia;container=1;" vertex="1" parent="iN3SImq5zuZHD2F-pTaS-451">
          <mxGeometry width="80" height="30" as="geometry" />
        </mxCell>
        <mxCell id="iN3SImq5zuZHD2F-pTaS-454" value="server.properties" style="html=1;whiteSpace=wrap;fontFamily=Georgia;" vertex="1" parent="iN3SImq5zuZHD2F-pTaS-451">
          <mxGeometry x="10" y="40.01" width="150" height="39.99" as="geometry" />
        </mxCell>
        <mxCell id="iN3SImq5zuZHD2F-pTaS-455" value="" style="group" vertex="1" connectable="0" parent="iN3SImq5zuZHD2F-pTaS-451">
          <mxGeometry y="100.00142857142862" width="170" height="108.57142857142858" as="geometry" />
        </mxCell>
        <mxCell id="iN3SImq5zuZHD2F-pTaS-456" value="" style="shape=folder;fontStyle=1;spacingTop=10;tabWidth=60;tabHeight=30;tabPosition=left;html=1;whiteSpace=wrap;" vertex="1" parent="iN3SImq5zuZHD2F-pTaS-455">
          <mxGeometry width="170" height="108.57142857142858" as="geometry" />
        </mxCell>
        <mxCell id="iN3SImq5zuZHD2F-pTaS-457" value="/logs" style="text;html=1;align=center;verticalAlign=middle;resizable=0;points=[];autosize=1;strokeColor=none;fillColor=none;fontFamily=Georgia;container=1;" vertex="1" parent="iN3SImq5zuZHD2F-pTaS-455">
          <mxGeometry width="60" height="30" as="geometry" />
        </mxCell>
        <mxCell id="iN3SImq5zuZHD2F-pTaS-458" value="" style="group" vertex="1" connectable="0" parent="1">
          <mxGeometry x="1780" y="-935" width="190" height="280" as="geometry" />
        </mxCell>
        <mxCell id="iN3SImq5zuZHD2F-pTaS-459" value="" style="group" vertex="1" connectable="0" parent="iN3SImq5zuZHD2F-pTaS-458">
          <mxGeometry width="190" height="280" as="geometry" />
        </mxCell>
        <mxCell id="iN3SImq5zuZHD2F-pTaS-460" value="" style="shape=folder;fontStyle=1;spacingTop=10;tabWidth=70;tabHeight=30;tabPosition=left;html=1;whiteSpace=wrap;" vertex="1" parent="iN3SImq5zuZHD2F-pTaS-459">
          <mxGeometry width="190" height="140" as="geometry" />
        </mxCell>
        <mxCell id="iN3SImq5zuZHD2F-pTaS-461" value="/kafka" style="text;html=1;align=center;verticalAlign=middle;resizable=0;points=[];autosize=1;strokeColor=none;fillColor=none;fontFamily=Georgia;container=1;" vertex="1" parent="iN3SImq5zuZHD2F-pTaS-459">
          <mxGeometry width="70" height="30" as="geometry" />
        </mxCell>
        <mxCell id="iN3SImq5zuZHD2F-pTaS-462" value="" style="group" vertex="1" connectable="0" parent="iN3SImq5zuZHD2F-pTaS-458">
          <mxGeometry x="10" y="40" width="170" height="140" as="geometry" />
        </mxCell>
        <mxCell id="iN3SImq5zuZHD2F-pTaS-463" value="" style="shape=folder;fontStyle=1;spacingTop=10;tabWidth=80;tabHeight=30;tabPosition=left;html=1;whiteSpace=wrap;" vertex="1" parent="iN3SImq5zuZHD2F-pTaS-462">
          <mxGeometry width="170" height="90" as="geometry" />
        </mxCell>
        <mxCell id="iN3SImq5zuZHD2F-pTaS-464" value="/config" style="text;html=1;align=center;verticalAlign=middle;resizable=0;points=[];autosize=1;strokeColor=none;fillColor=none;fontFamily=Georgia;container=1;" vertex="1" parent="iN3SImq5zuZHD2F-pTaS-462">
          <mxGeometry width="80" height="30" as="geometry" />
        </mxCell>
        <mxCell id="iN3SImq5zuZHD2F-pTaS-465" value="server.properties" style="html=1;whiteSpace=wrap;fontFamily=Georgia;" vertex="1" parent="iN3SImq5zuZHD2F-pTaS-462">
          <mxGeometry x="10" y="40" width="150" height="40" as="geometry" />
        </mxCell>
        <mxCell id="iN3SImq5zuZHD2F-pTaS-466" value="" style="group" vertex="1" connectable="0" parent="1">
          <mxGeometry x="1990" y="-1075" width="190" height="430" as="geometry" />
        </mxCell>
        <mxCell id="iN3SImq5zuZHD2F-pTaS-467" value="" style="shape=folder;fontStyle=1;spacingTop=10;tabWidth=120;tabHeight=30;tabPosition=left;html=1;whiteSpace=wrap;" vertex="1" parent="iN3SImq5zuZHD2F-pTaS-466">
          <mxGeometry width="190" height="430" as="geometry" />
        </mxCell>
        <mxCell id="iN3SImq5zuZHD2F-pTaS-468" value="/kafka-atenas" style="text;html=1;align=center;verticalAlign=middle;resizable=0;points=[];autosize=1;strokeColor=none;fillColor=none;fontFamily=Georgia;container=1;" vertex="1" parent="iN3SImq5zuZHD2F-pTaS-466">
          <mxGeometry width="120" height="30" as="geometry" />
        </mxCell>
        <mxCell id="iN3SImq5zuZHD2F-pTaS-469" value="" style="group" vertex="1" connectable="0" parent="iN3SImq5zuZHD2F-pTaS-466">
          <mxGeometry x="10" y="39.99571428571429" width="170" height="258.5728571428572" as="geometry" />
        </mxCell>
        <mxCell id="iN3SImq5zuZHD2F-pTaS-470" value="" style="shape=folder;fontStyle=1;spacingTop=10;tabWidth=80;tabHeight=30;tabPosition=left;html=1;whiteSpace=wrap;" vertex="1" parent="iN3SImq5zuZHD2F-pTaS-469">
          <mxGeometry width="170" height="140" as="geometry" />
        </mxCell>
        <mxCell id="iN3SImq5zuZHD2F-pTaS-471" value="/config" style="text;html=1;align=center;verticalAlign=middle;resizable=0;points=[];autosize=1;strokeColor=none;fillColor=none;fontFamily=Georgia;container=1;" vertex="1" parent="iN3SImq5zuZHD2F-pTaS-469">
          <mxGeometry width="80" height="30" as="geometry" />
        </mxCell>
        <mxCell id="iN3SImq5zuZHD2F-pTaS-472" value="server.properties" style="html=1;whiteSpace=wrap;fontFamily=Georgia;" vertex="1" parent="iN3SImq5zuZHD2F-pTaS-469">
          <mxGeometry x="10" y="40.01" width="150" height="39.99" as="geometry" />
        </mxCell>
        <mxCell id="iN3SImq5zuZHD2F-pTaS-473" value="zookeeper.properties" style="html=1;whiteSpace=wrap;fontFamily=Georgia;" vertex="1" parent="iN3SImq5zuZHD2F-pTaS-469">
          <mxGeometry x="10" y="90" width="150" height="40" as="geometry" />
        </mxCell>
        <mxCell id="iN3SImq5zuZHD2F-pTaS-474" value="" style="group" vertex="1" connectable="0" parent="iN3SImq5zuZHD2F-pTaS-469">
          <mxGeometry y="150.00142857142862" width="170" height="108.57142857142858" as="geometry" />
        </mxCell>
        <mxCell id="iN3SImq5zuZHD2F-pTaS-475" value="" style="shape=folder;fontStyle=1;spacingTop=10;tabWidth=60;tabHeight=30;tabPosition=left;html=1;whiteSpace=wrap;" vertex="1" parent="iN3SImq5zuZHD2F-pTaS-474">
          <mxGeometry width="170" height="108.57142857142858" as="geometry" />
        </mxCell>
        <mxCell id="iN3SImq5zuZHD2F-pTaS-476" value="/logs" style="text;html=1;align=center;verticalAlign=middle;resizable=0;points=[];autosize=1;strokeColor=none;fillColor=none;fontFamily=Georgia;container=1;" vertex="1" parent="iN3SImq5zuZHD2F-pTaS-474">
          <mxGeometry width="60" height="30" as="geometry" />
        </mxCell>
        <mxCell id="iN3SImq5zuZHD2F-pTaS-477" value="" style="group" vertex="1" connectable="0" parent="iN3SImq5zuZHD2F-pTaS-466">
          <mxGeometry x="10" y="309.9971428571429" width="170" height="108.57142857142858" as="geometry" />
        </mxCell>
        <mxCell id="iN3SImq5zuZHD2F-pTaS-478" value="" style="shape=folder;fontStyle=1;spacingTop=10;tabWidth=60;tabHeight=30;tabPosition=left;html=1;whiteSpace=wrap;" vertex="1" parent="iN3SImq5zuZHD2F-pTaS-477">
          <mxGeometry width="170" height="108.57142857142858" as="geometry" />
        </mxCell>
        <mxCell id="iN3SImq5zuZHD2F-pTaS-479" value="/data" style="text;html=1;align=center;verticalAlign=middle;resizable=0;points=[];autosize=1;strokeColor=none;fillColor=none;fontFamily=Georgia;container=1;" vertex="1" parent="iN3SImq5zuZHD2F-pTaS-477">
          <mxGeometry width="60" height="30" as="geometry" />
        </mxCell>
        <mxCell id="iN3SImq5zuZHD2F-pTaS-480" value="" style="shape=folder;fontStyle=1;spacingTop=10;tabWidth=100;tabHeight=30;tabPosition=left;html=1;whiteSpace=wrap;" vertex="1" parent="1">
          <mxGeometry x="2200" y="-1075" width="190" height="260" as="geometry" />
        </mxCell>
        <mxCell id="iN3SImq5zuZHD2F-pTaS-481" value="/kafka-zeus" style="text;html=1;align=center;verticalAlign=middle;resizable=0;points=[];autosize=1;strokeColor=none;fillColor=none;fontFamily=Georgia;container=1;" vertex="1" parent="1">
          <mxGeometry x="2200" y="-1075" width="100" height="30" as="geometry" />
        </mxCell>
        <mxCell id="iN3SImq5zuZHD2F-pTaS-482" value="" style="group" vertex="1" connectable="0" parent="1">
          <mxGeometry x="2210" y="-1035.0042857142857" width="170" height="258.5728571428572" as="geometry" />
        </mxCell>
        <mxCell id="iN3SImq5zuZHD2F-pTaS-483" value="" style="shape=folder;fontStyle=1;spacingTop=10;tabWidth=80;tabHeight=30;tabPosition=left;html=1;whiteSpace=wrap;" vertex="1" parent="iN3SImq5zuZHD2F-pTaS-482">
          <mxGeometry width="170" height="90" as="geometry" />
        </mxCell>
        <mxCell id="iN3SImq5zuZHD2F-pTaS-484" value="/config" style="text;html=1;align=center;verticalAlign=middle;resizable=0;points=[];autosize=1;strokeColor=none;fillColor=none;fontFamily=Georgia;container=1;" vertex="1" parent="iN3SImq5zuZHD2F-pTaS-482">
          <mxGeometry width="80" height="30" as="geometry" />
        </mxCell>
        <mxCell id="iN3SImq5zuZHD2F-pTaS-485" value="server.properties" style="html=1;whiteSpace=wrap;fontFamily=Georgia;" vertex="1" parent="iN3SImq5zuZHD2F-pTaS-482">
          <mxGeometry x="10" y="40.01" width="150" height="39.99" as="geometry" />
        </mxCell>
        <mxCell id="iN3SImq5zuZHD2F-pTaS-486" value="" style="group" vertex="1" connectable="0" parent="iN3SImq5zuZHD2F-pTaS-482">
          <mxGeometry y="100.00142857142862" width="170" height="108.57142857142858" as="geometry" />
        </mxCell>
        <mxCell id="iN3SImq5zuZHD2F-pTaS-487" value="" style="shape=folder;fontStyle=1;spacingTop=10;tabWidth=60;tabHeight=30;tabPosition=left;html=1;whiteSpace=wrap;" vertex="1" parent="iN3SImq5zuZHD2F-pTaS-486">
          <mxGeometry width="170" height="108.57142857142858" as="geometry" />
        </mxCell>
        <mxCell id="iN3SImq5zuZHD2F-pTaS-488" value="/logs" style="text;html=1;align=center;verticalAlign=middle;resizable=0;points=[];autosize=1;strokeColor=none;fillColor=none;fontFamily=Georgia;container=1;" vertex="1" parent="iN3SImq5zuZHD2F-pTaS-486">
          <mxGeometry width="60" height="30" as="geometry" />
        </mxCell>
        <mxCell id="iN3SImq5zuZHD2F-pTaS-489" value="" style="shape=folder;fontStyle=1;spacingTop=10;tabWidth=100;tabHeight=30;tabPosition=left;html=1;whiteSpace=wrap;" vertex="1" parent="1">
          <mxGeometry x="1770" y="-611" width="360" height="140" as="geometry" />
        </mxCell>
        <mxCell id="iN3SImq5zuZHD2F-pTaS-490" value="/jupyterhub" style="text;html=1;align=center;verticalAlign=middle;resizable=0;points=[];autosize=1;strokeColor=none;fillColor=none;fontFamily=Georgia;container=1;" vertex="1" parent="1">
          <mxGeometry x="1770" y="-611" width="100" height="30" as="geometry" />
        </mxCell>
        <mxCell id="iN3SImq5zuZHD2F-pTaS-491" value="jupyterhub.sqlite" style="html=1;whiteSpace=wrap;fontFamily=Georgia;" vertex="1" parent="1">
          <mxGeometry x="1980" y="-521" width="140" height="40" as="geometry" />
        </mxCell>
        <mxCell id="iN3SImq5zuZHD2F-pTaS-492" value="jupyterhub.service" style="html=1;whiteSpace=wrap;fontFamily=Georgia;" vertex="1" parent="1">
          <mxGeometry x="1960" y="-571" width="160" height="40" as="geometry" />
        </mxCell>
        <mxCell id="iN3SImq5zuZHD2F-pTaS-493" value="jupyterhub_cookie_secret" style="html=1;whiteSpace=wrap;fontFamily=Georgia;" vertex="1" parent="1">
          <mxGeometry x="1780" y="-521" width="190" height="40" as="geometry" />
        </mxCell>
        <mxCell id="iN3SImq5zuZHD2F-pTaS-494" value="jupyterhub_config.py" style="html=1;whiteSpace=wrap;fontFamily=Georgia;" vertex="1" parent="1">
          <mxGeometry x="1780" y="-571" width="170" height="40" as="geometry" />
        </mxCell>
        <mxCell id="iN3SImq5zuZHD2F-pTaS-219" value="" style="group" vertex="1" connectable="0" parent="1">
          <mxGeometry x="1890" y="-461" width="240" height="140" as="geometry" />
        </mxCell>
        <mxCell id="iN3SImq5zuZHD2F-pTaS-495" value="" style="group" vertex="1" connectable="0" parent="iN3SImq5zuZHD2F-pTaS-219">
          <mxGeometry x="73.84615384615384" y="10" width="166.15384615384616" height="130" as="geometry" />
        </mxCell>
        <mxCell id="iN3SImq5zuZHD2F-pTaS-87" value="" style="shape=folder;fontStyle=1;spacingTop=10;tabWidth=60;tabHeight=30;tabPosition=left;html=1;whiteSpace=wrap;" vertex="1" parent="iN3SImq5zuZHD2F-pTaS-495">
          <mxGeometry width="166.15384615384616" height="130" as="geometry" />
        </mxCell>
        <mxCell id="iN3SImq5zuZHD2F-pTaS-88" value="/java" style="text;html=1;align=center;verticalAlign=middle;resizable=0;points=[];autosize=1;strokeColor=none;fillColor=none;fontFamily=Georgia;container=1;" vertex="1" parent="iN3SImq5zuZHD2F-pTaS-495">
          <mxGeometry width="60" height="30" as="geometry" />
        </mxCell>
        <mxCell id="iN3SImq5zuZHD2F-pTaS-220" value="" style="group" vertex="1" connectable="0" parent="1">
          <mxGeometry x="2670" y="-730" width="340" height="360" as="geometry" />
        </mxCell>
        <mxCell id="iN3SImq5zuZHD2F-pTaS-96" value="" style="shape=folder;fontStyle=1;spacingTop=10;tabWidth=170;tabHeight=29;tabPosition=left;html=1;whiteSpace=wrap;" vertex="1" parent="iN3SImq5zuZHD2F-pTaS-220">
          <mxGeometry width="340" height="359.99999999999994" as="geometry" />
        </mxCell>
        <mxCell id="iN3SImq5zuZHD2F-pTaS-97" value="&lt;div&gt;/etc/kibana [Atenas]&lt;/div&gt;" style="text;html=1;align=center;verticalAlign=middle;resizable=0;points=[];autosize=1;strokeColor=none;fillColor=none;fontFamily=Georgia;container=1;" vertex="1" parent="iN3SImq5zuZHD2F-pTaS-220">
          <mxGeometry width="170" height="30" as="geometry" />
        </mxCell>
        <mxCell id="iN3SImq5zuZHD2F-pTaS-92" value="" style="group" vertex="1" connectable="0" parent="1">
          <mxGeometry x="2670" y="-330" width="340" height="651" as="geometry" />
        </mxCell>
        <mxCell id="iN3SImq5zuZHD2F-pTaS-90" value="" style="shape=folder;fontStyle=1;spacingTop=10;tabWidth=150;tabHeight=30;tabPosition=left;html=1;whiteSpace=wrap;" vertex="1" parent="iN3SImq5zuZHD2F-pTaS-92">
          <mxGeometry y="3.07" width="340" height="356.93" as="geometry" />
        </mxCell>
        <mxCell id="iN3SImq5zuZHD2F-pTaS-91" value="/etc/nginx [Zeus]" style="text;html=1;align=center;verticalAlign=middle;resizable=0;points=[];autosize=1;strokeColor=none;fillColor=none;fontFamily=Georgia;container=1;" vertex="1" parent="iN3SImq5zuZHD2F-pTaS-92">
          <mxGeometry width="150" height="30" as="geometry" />
        </mxCell>
      </root>
    </mxGraphModel>
  </diagram>
</mxfile>
